<?xml version="1.0" standalone="no"?>
<!DOCTYPE svg PUBLIC "-//W3C//DTD SVG 20010904//EN"
 "http://www.w3.org/TR/2001/REC-SVG-20010904/DTD/svg10.dtd">
<svg version="1.0" xmlns="http://www.w3.org/2000/svg"
 width="1000.000000pt" height="1000.000000pt" viewBox="0 0 1000.000000 1000.000000"
 preserveAspectRatio="xMidYMid meet">

<g transform="translate(0.000000,1000.000000) scale(0.100000,-0.100000)"
fill="#000000" stroke="none">
<path d="M3920 9934 c-23 -121 10 -271 81 -367 22 -30 69 -77 103 -105 80 -64
100 -103 94 -189 -4 -56 -13 -82 -72 -195 -175 -337 -200 -554 -89 -778 30
-62 58 -97 158 -197 131 -131 165 -183 165 -256 0 -50 -26 -97 -149 -270 -138
-196 -182 -302 -189 -457 -4 -94 -1 -114 22 -183 29 -88 76 -169 163 -283 84
-111 120 -189 91 -199 -7 -2 -357 -22 -778 -44 -421 -22 -802 -45 -848 -51
-102 -13 -156 -34 -181 -69 -23 -31 -750 -1711 -763 -1762 -7 -27 -6 -45 7
-75 16 -36 19 -207 41 -1994 12 -1075 24 -2000 26 -2056 3 -90 6 -104 29 -135
14 -19 29 -47 33 -63 11 -44 36 -75 77 -96 37 -19 75 -19 2576 -4 l2538 15 65
32 c94 47 103 67 101 225 -1 70 -33 1032 -70 2137 -51 1532 -70 2016 -80 2035
-8 14 -23 36 -35 50 -13 14 -184 367 -381 785 -565 1198 -532 1134 -601 1154
-17 4 -312 -8 -714 -30 -377 -21 -695 -38 -706 -39 -19 0 -22 7 -26 53 -6 74
-42 144 -145 283 -114 154 -138 206 -138 299 0 60 5 81 36 145 20 41 62 111
93 154 194 269 232 362 207 506 -24 135 -88 236 -261 415 -114 119 -137 170
-127 284 8 86 28 143 125 347 94 198 105 232 104 339 -1 150 -61 278 -173 369
-121 99 -145 183 -82 284 l32 52 -173 0 -174 0 -12 -66z m2370 -4477 c200
-424 394 -835 431 -912 l67 -140 25 -745 c14 -410 24 -746 23 -747 -1 -1 -37
11 -81 28 -143 56 -242 73 -415 73 -187 -1 -245 -15 -495 -126 -244 -107 -318
-115 -635 -66 -315 48 -497 21 -651 -98 -33 -25 -75 -50 -93 -54 -41 -9 -137
15 -300 76 -148 55 -280 90 -394 105 -147 20 -278 -17 -466 -130 -127 -77
-184 -101 -241 -101 -53 0 -76 10 -255 107 -120 66 -187 83 -315 83 -132 0
-221 -20 -325 -72 -47 -24 -88 -44 -91 -46 -4 -2 -10 334 -13 745 -4 411 -11
822 -15 912 l-9 165 331 765 c181 421 335 771 341 777 7 8 257 25 741 51 402
22 731 39 733 37 2 -1 -1 -28 -7 -61 -6 -32 -13 -74 -16 -94 l-5 -36 -119 -8
c-90 -5 -126 -11 -150 -26 -100 -61 -93 -213 13 -260 39 -17 59 -17 406 -4
489 19 493 19 531 41 92 55 91 195 -3 255 -31 19 -44 20 -202 16 l-169 -5 6
52 c8 66 24 122 41 139 10 9 150 20 557 40 299 16 555 30 569 31 14 2 84 4
155 4 l130 2 365 -773z m268 -2787 c70 -12 292 -106 292 -124 0 -6 16 -477 35
-1046 19 -569 35 -1045 35 -1057 0 -23 -2 -23 -127 -23 l-128 0 42 20 c61 27
85 70 80 142 -4 62 -25 96 -79 124 -109 56 -239 -54 -206 -174 12 -43 70 -102
100 -102 12 0 19 -2 16 -5 -5 -5 -4510 -37 -4514 -32 -3 3 -24 1603 -24 1803
l0 159 43 1 c25 1 71 16 115 37 134 65 220 58 391 -28 145 -72 224 -95 331
-95 114 0 177 16 334 84 202 89 262 108 356 113 103 6 162 -8 333 -78 302
-124 454 -121 683 16 80 48 105 57 174 67 80 12 113 10 435 -22 121 -12 286 0
394 30 41 12 145 50 231 85 132 54 223 83 335 108 40 9 262 7 323 -3z"/>
<path d="M6471 2549 c-18 -4 -49 -23 -69 -42 -61 -61 -56 -153 12 -216 37 -35
127 -41 174 -11 33 21 72 87 72 125 0 34 -37 102 -64 120 -35 23 -84 33 -125
24z"/>
<path d="M5254 2390 c-55 -28 -88 -87 -82 -145 17 -145 202 -184 276 -59 72
123 -66 269 -194 204z"/>
<path d="M2324 2381 c-28 -12 -82 -76 -90 -107 -31 -122 103 -225 216 -165
129 68 85 264 -61 277 -24 2 -53 0 -65 -5z"/>
<path d="M3339 2257 c-67 -44 -88 -135 -46 -197 36 -54 71 -74 127 -74 147 0
202 188 80 272 -45 30 -115 30 -161 -1z"/>
<path d="M4135 2051 c-53 -32 -68 -58 -73 -119 -3 -47 0 -63 20 -92 44 -65
122 -87 188 -51 104 54 108 200 8 261 -41 25 -104 26 -143 1z"/>
<path d="M5022 1723 c-74 -36 -104 -138 -60 -202 37 -55 73 -76 128 -76 85 0
155 74 147 156 -10 108 -118 170 -215 122z"/>
<path d="M2403 1679 c-42 -27 -77 -99 -69 -142 10 -54 43 -97 92 -118 166 -74
287 166 132 261 -44 26 -113 26 -155 -1z"/>
<path d="M6261 1648 c-76 -41 -104 -135 -61 -206 94 -154 335 -35 262 130 -38
86 -123 118 -201 76z"/>
<path d="M5744 1619 c-42 -12 -91 -69 -100 -114 -10 -53 19 -120 64 -150 70
-48 167 -26 212 47 68 112 -49 256 -176 217z"/>
<path d="M3911 1568 c-55 -37 -76 -73 -76 -128 0 -109 113 -180 211 -134 99
47 111 192 21 256 -45 32 -114 35 -156 6z"/>
<path d="M4532 1440 c-100 -61 -96 -207 8 -261 97 -52 214 21 214 132 0 112
-127 187 -222 129z"/>
<path d="M2933 1281 c-112 -70 -89 -234 38 -273 78 -23 169 35 185 117 9 49
-19 119 -58 147 -44 31 -123 35 -165 9z"/>
<path d="M6084 1045 c-104 -62 -96 -213 14 -266 80 -39 157 -12 200 72 28 54
23 107 -15 157 -49 64 -129 79 -199 37z"/>
<path d="M3415 941 c-53 -33 -69 -58 -72 -119 -5 -74 19 -115 83 -144 102 -45
208 27 206 141 -1 105 -129 177 -217 122z"/>
<path d="M5515 821 c-34 -14 -74 -62 -87 -102 -23 -78 35 -169 117 -185 49 -9
119 19 147 58 33 47 36 124 6 168 -39 58 -122 86 -183 61z"/>
<path d="M4435 806 c-53 -24 -95 -85 -95 -138 0 -71 79 -148 151 -148 154 0
205 207 69 278 -50 25 -82 27 -125 8z"/>
<path d="M2333 731 c-140 -65 -91 -281 63 -281 76 0 147 68 147 142 0 115
-108 186 -210 139z"/>
</g>
</svg>
