<svg viewBox="0 0 44.8537 44.8435" fill="none" xmlns="http://www.w3.org/2000/svg" aria-hidden="true">
<g id="Group">
<path id="Vector" d="M34.8379 26.7988C35.0408 26.7969 35.2396 26.8579 35.4063 26.9736C35.5692 27.0868 35.6927 27.2472 35.7627 27.4326L36.5684 29.9121L36.5713 29.9238L36.5752 29.9346C36.8283 30.6813 37.2516 31.3598 37.8105 31.916C38.3693 32.472 39.0491 32.8912 39.7969 33.1406L39.8096 33.1445L42.2813 33.9492L42.291 33.9531L42.3018 33.9561C42.497 34.0171 42.6684 34.138 42.791 34.3018C42.9136 34.4654 42.9816 34.6637 42.9854 34.8682C42.989 35.0726 42.9281 35.2734 42.8115 35.4414C42.6967 35.6068 42.5328 35.731 42.3438 35.7998L39.8535 36.6094L39.8438 36.6123L39.833 36.6162C39.084 36.869 38.4034 37.2922 37.8457 37.8525C37.2882 38.4129 36.8683 39.0955 36.6191 39.8457L36.6162 39.8555L35.8174 42.3047C35.7475 42.5059 35.6204 42.6744 35.4561 42.79L35.4492 42.7949C35.2838 42.9125 35.0848 42.9754 34.8818 42.9746C34.7298 42.974 34.5807 42.9383 34.4463 42.8701L34.3174 42.791L34.3076 42.7842C34.1895 42.6999 34.0927 42.59 34.0254 42.4629L33.9688 42.3301L33.1611 39.8506L33.1592 39.8447C32.9108 39.0901 32.4888 38.4043 31.9277 37.8418C31.3666 37.2793 30.6818 36.8557 29.9277 36.6055L29.918 36.6025L27.4668 35.8037H27.4678C27.2719 35.7376 27.1014 35.6119 26.9805 35.4443C26.8603 35.2776 26.7946 35.0775 26.793 34.8721C26.7942 34.6701 26.8572 34.473 26.9746 34.3086C27.0924 34.1437 27.2589 34.0197 27.4502 33.9531L29.9277 33.1504L29.9521 33.1426L29.9766 33.1338C30.7112 32.873 31.3761 32.4473 31.9209 31.8896C32.4657 31.3319 32.8756 30.6566 33.1191 29.916L33.1211 29.9131L33.9209 27.4629C33.9862 27.2709 34.1091 27.1033 34.2734 26.9844C34.4377 26.8655 34.6352 26.8009 34.8379 26.7988ZM16.1055 1.86816C16.4657 1.86526 16.818 1.97516 17.1133 2.18164C17.4052 2.38583 17.6263 2.67518 17.748 3.00977L19.1758 7.39844L19.1797 7.40918C19.6224 8.74302 20.3708 9.95517 21.3643 10.9492C22.3577 11.9432 23.5689 12.6922 24.9023 13.1357L24.915 13.1396L29.2871 14.5596L29.3125 14.5674C29.6595 14.6747 29.9643 14.8894 30.1826 15.1797C30.4008 15.4699 30.5214 15.8216 30.5283 16.1846C30.5352 16.5477 30.4279 16.9038 30.2207 17.2021C30.0137 17.5003 29.7174 17.7243 29.375 17.8447L24.9873 19.2725L24.9756 19.2764C23.6477 19.7177 22.44 20.4611 21.4492 21.4492C20.4586 22.4372 19.7116 23.6423 19.2666 24.9688L19.2627 24.9795L17.7676 29.5234C17.6324 29.8094 17.4222 30.0534 17.1572 30.2275C16.8753 30.4128 16.5454 30.5113 16.208 30.5107L16.0127 30.5098C15.7217 30.4791 15.4413 30.377 15.1992 30.2061L15.1982 30.2051L15.0947 30.125C14.8616 29.9311 14.6797 29.6714 14.5742 29.3721L13.1455 24.9844L13.1416 24.9736L13.0547 24.7246C12.6034 23.4895 11.8883 22.366 10.958 21.4336C9.96567 20.4392 8.75587 19.6886 7.42383 19.2422L7.40625 19.2363L3.04785 17.8232C2.70661 17.7088 2.40967 17.4905 2.19824 17.1992C1.98623 16.907 1.87041 16.5554 1.86816 16.1943C1.86594 15.8333 1.9772 15.4804 2.18555 15.1855C2.39231 14.8931 2.68477 14.6718 3.02246 14.5527L7.41602 13.1416L7.44043 13.1338L7.46387 13.126C8.75462 12.6728 9.92571 11.9316 10.8887 10.96C11.8514 9.98844 12.5809 8.81111 13.0225 7.5166L13.0273 7.50391L13.0313 7.49121L14.4766 3.04688C14.592 2.70565 14.8107 2.40844 15.1025 2.19727C15.3944 1.98606 15.7452 1.87107 16.1055 1.86816Z" fill="#F0CE2E" stroke="black" stroke-width="3.73702"/>
</g>
</svg>
